#!OML:ASF F:\VICON\USERDATA\Patient Classification 1\PLAYGROUND\JustinFriday\JustinFriday.ASF
:FULLY-SPECIFIED
:DEGREES
3174
root -0.110786 17.1966 14.7891 -905.733 -197.479 173.403
lowerback 11.4306 5.09943 0.718267
upperback 0.894496 6.93393 1.04407
thorax -5.4861 3.40904 -0.415478
lowerneck 4.46135 -12.9274 -12.9468
upperneck -1.12994 -18.1796 23.3419
head 2.38551 -9.29039 8.64699
rclavicle -3.46879e-014 -2.46493e-014
rhumerus -25.1175 -3.86724 -78.537
rradius 58.1723
rwrist 360.108
rhand -10.0262 -21.0321
rfingers 7.12502
rthumb 15.9584 669.605
lclavicle -3.46879e-014 -2.46493e-014
lhumerus -26.2985 16.2891 78.2257
lradius 45.0355
lwrist 11.1263
lhand -23.3649 -10.2614
lfingers 7.12502
lthumb 3.09067 19.696
rfemur -24.7846 -8.09216 21.0483
rtibia 41.261
rfoot -10.0862 -14.1328
rtoes 1.53806
lfemur 5.19672 -9.96314 -13.2006
ltibia 29.6394
lfoot -26.6458 3.79263
ltoes -20.3989
3175
root -0.108922 17.2014 14.8863 -904.934 -196.729 174.08
lowerback 11.1093 4.93872 -0.257681
upperback 0.804393 6.59825 1.07001
thorax -5.51698 3.26773 0.222552
lowerneck 4.3006 -12.8564 -12.7714
upperneck -0.779605 -18.0967 22.8658
head 2.42974 -9.22522 8.45912
rclavicle -6.2319e-014 -3.57812e-015
rhumerus -25.3035 -2.89007 -79.0639
rradius 57.5296
rwrist 359.424
rhand -10.4648 -21.2204
rfingers 7.12502
rthumb 15.5361 669.384
lclavicle -6.2319e-014 -3.57812e-015
lhumerus -26.0485 15.8522 77.746
lradius 45.7049
lwrist 9.0928
lhand -22.4397 -12.8682
lfingers 7.12502
lthumb 3.98413 17.0743
rfemur -25.4912 -8.40304 20.8186
rtibia 39.8378
rfoot -9.18624 -14.2097
rtoes 3.25031
lfemur 5.5926 -10.0374 -14.0603
ltibia 28.7798
lfoot -26.2002 4.92344
ltoes -20.7939
3176
root -0.105565 17.2217 14.9902 -904.139 -196.03 174.713
lowerback 10.7209 4.87198 -0.78953
upperback 0.783933 6.43239 0.851497
thorax -5.35284 3.19783 0.348156
lowerneck 4.18108 -12.9594 -12.2042
upperneck -0.967787 -18.1547 22.5636
head 2.32075 -9.25375 8.27032
rclavicle 5.40197e-014 -1.07344e-014
rhumerus -25.4017 -2.743 -79.6266
rradius 56.766
rwrist 359.148
rhand -10.8043 -21.0051
rfingers 7.12502
rthumb 15.209 669.574
lclavicle 5.40197e-014 -1.07344e-014
lhumerus -25.6299 14.5954 77.2424
lradius 46.9478
lwrist 7.3644
lhand -21.9046 -14.2581
lfingers 7.12502
lthumb 4.50089 15.6741
rfemur -26.2647 -8.98031 20.7042
rtibia 38.6116
rfoot -7.88254 -14.2702
rtoes 5.54779
lfemur 5.99517 -10.0591 -14.8718
ltibia 27.8299
lfoot -25.6763 5.95627
ltoes -21.6722
3177
root -0.104543 17.2426 15.0928 -903.87 -195.252 174.499
lowerback 10.6744 4.71336 -0.57683
upperback 0.840492 6.25418 0.987258
thorax -5.25666 3.10733 0.40662
lowerneck 3.87881 -13.0219 -12.1043
upperneck -0.989358 -18.21 22.4692
head 2.35618 -9.26495 8.19622
rclavicle -1.74434e-014 9.93923e-015
rhumerus -25.3573 -2.40664 -80.0293
rradius 55.9506
rwrist 359.047
rhand -10.7342 -21.3227
rfingers 7.12502
rthumb 15.2765 669.261
lclavicle -1.74434e-014 9.93923e-015
lhumerus -25.0584 13.4475 76.7444
lradius 47.5763
lwrist 6.1218
lhand -21.2253 -14.7726
lfingers 7.12502
lthumb 5.15682 15.1446
rfemur -26.7494 -9.31429 21.4733
rtibia 37.642
rfoot -6.62812 -14.5568
rtoes 7.10297
lfemur 6.72441 -9.86528 -14.7003
ltibia 26.7865
lfoot -25.2157 6.59025
ltoes -22.7332
